<?xml version="1.0" encoding="UTF-8"?>
<svg width="228px" height="42px" viewBox="0 0 228 42" version="1.1" xmlns="http://www.w3.org/2000/svg" xmlns:xlink="http://www.w3.org/1999/xlink">
    <!-- Generator: Sketch 55.2 (78181) - https://sketchapp.com -->
    <title>Custom Preset 5</title>
    <desc>Created with Sketch.</desc>
    <g id="Custom-Preset-5" stroke="none" stroke-width="1" fill="none" fill-rule="evenodd">
        <path d="M3.41618992,11.8309651 L6.93181157,22.8820909 L7.06675462,22.8820909 L10.5894785,11.8309651 L13.9985662,11.8309651 L8.98436643,26.3764058 L5.02130203,26.3764058 L-2.84217094e-14,11.8309651 L3.41618992,11.8309651 Z M15.6889198,26.3764058 L15.6889198,15.4673253 L18.7144851,15.4673253 L18.7144851,26.3764058 L15.6889198,26.3764058 Z M17.2088047,14.0610766 C16.3139192,14.0610766 15.5752835,13.3721568 15.5752835,12.5269872 C15.5752835,11.6889198 16.3139192,11 17.2088047,11 C18.1107924,11 18.8494281,11.6889198 18.8494281,12.5269872 C18.8494281,13.3721568 18.1107924,14.0610766 17.2088047,14.0610766 Z M25.1491432,26.5539624 C22.6633501,26.5539624 20.7244315,24.5866348 20.7244315,20.9360701 C20.7244315,17.1860736 22.7485773,15.32528 25.1420409,15.32528 C26.9673233,15.32528 27.840902,16.4119267 28.2457312,17.2997099 L28.3380606,17.2997099 L28.3380606,11.8309651 L31.3565236,11.8309651 L31.3565236,26.3764058 L28.3735719,26.3764058 L28.3735719,24.6292484 L28.2457312,24.6292484 C27.8266975,25.5383384 26.9105052,26.5539624 25.1491432,26.5539624 Z M26.1079491,24.1462943 C27.5639136,24.1462943 28.401981,22.8678864 28.401981,20.9218655 C28.401981,18.9758447 27.5781182,17.7329481 26.1079491,17.7329481 C24.609371,17.7329481 23.8139172,19.0326628 23.8139172,20.9218655 C23.8139172,22.8252728 24.6235755,24.1462943 26.1079491,24.1462943 Z M38.8068127,26.5894738 C35.4474409,26.5894738 33.3948861,24.4303849 33.3948861,20.9715814 C33.3948861,17.6051073 35.47585,15.32528 38.6860742,15.32528 C41.5695942,15.32528 43.8139102,17.1576646 43.8139102,20.8650474 L43.8139102,21.6960125 L36.3849401,21.6960125 L36.3849401,21.7031148 C36.3849401,23.3295337 37.343746,24.3309532 38.8565286,24.3309532 C39.8650504,24.3309532 40.6462996,23.897715 40.9516971,23.0667499 L43.7499898,23.2514088 C43.3238539,25.2755546 41.5056738,26.5894738 38.8068127,26.5894738 Z M36.3849401,19.8210143 L40.9659016,19.8210143 C40.9587993,18.5212996 40.0497093,17.5838005 38.7357901,17.5838005 C37.3934618,17.5838005 36.4488604,18.5781178 36.3849401,19.8210143 Z M50.7173241,26.5894738 C47.4076682,26.5894738 45.3480111,24.3238509 45.3480111,20.9644791 C45.3480111,17.5838005 47.4076682,15.32528 50.7173241,15.32528 C54.0269801,15.32528 56.0866372,17.5838005 56.0866372,20.9644791 C56.0866372,24.3238509 54.0269801,26.5894738 50.7173241,26.5894738 Z M50.7315287,24.245726 C52.2301068,24.245726 53.0113561,22.8465796 53.0113561,20.9431723 C53.0113561,19.0397651 52.2301068,17.6335164 50.7315287,17.6335164 C49.2045415,17.6335164 48.4232922,19.0397651 48.4232922,20.9431723 C48.4232922,22.8465796 49.2045415,24.245726 50.7315287,24.245726 Z M62.7556811,26.3764058 L62.7556811,11.8309651 L68.5795391,11.8309651 C71.7897634,11.8309651 73.40908,13.3792591 73.40908,15.5596547 C73.40908,17.2713008 72.2940242,18.343743 70.7812416,18.6846518 L70.7812416,18.8266971 C72.4360696,18.904822 73.9772613,20.2045367 73.9772613,22.3565233 C73.9772613,24.671862 72.2372061,26.3764058 68.9701638,26.3764058 L62.7556811,26.3764058 Z M65.8309622,23.8622036 L68.3380621,23.8622036 C70.0568105,23.8622036 70.8025484,23.1448748 70.8025484,22.0511258 C70.8025484,20.8508429 69.8863561,19.998571 68.4090848,19.998571 L65.8309622,19.998571 L65.8309622,23.8622036 Z M65.8309622,17.917607 L68.1107896,17.917607 C69.3678907,17.917607 70.3053898,17.221585 70.3053898,16.0710179 C70.3053898,15.0198825 69.5312428,14.3167582 68.1676077,14.3167582 L65.8309622,14.3167582 L65.8309622,17.917607 Z M79.026985,26.5823715 C76.946021,26.5823715 75.4048293,25.4886225 75.4048293,23.3295337 C75.4048293,20.8934565 77.3437479,20.1690253 79.5028368,19.9701619 C81.3991418,19.785503 82.1448797,19.6931735 82.1448797,18.9900492 L82.1448797,18.9474356 C82.1448797,18.0525501 81.5553917,17.5340847 80.5255631,17.5340847 C79.4389164,17.5340847 78.7926102,18.0667546 78.5866445,18.7911858 L75.7883517,18.5639132 C76.2073854,16.5752788 77.9261337,15.32528 80.5397676,15.32528 C82.9687426,15.32528 85.170445,16.4190289 85.170445,19.0184583 L85.170445,26.3764058 L82.3011296,26.3764058 L82.3011296,24.8636231 L82.2159024,24.8636231 C81.6832324,25.8792472 80.6391993,26.5823715 79.026985,26.5823715 Z M79.8934614,24.4943053 C81.2215852,24.4943053 82.1661865,23.6207266 82.1661865,22.4772618 L82.1661865,21.3195924 C81.803971,21.5610695 80.7244265,21.7173193 80.0639158,21.8096488 C78.9985759,21.9587964 78.2954516,22.3778301 78.2954516,23.230102 C78.2954516,24.0610671 78.9630646,24.4943053 79.8934614,24.4943053 Z M92.4502787,26.5894738 C89.0909069,26.5894738 87.0809656,24.2812373 87.0809656,20.9644791 C87.0809656,17.6193119 89.1264182,15.32528 92.4360742,15.32528 C95.2840828,15.32528 97.1945923,16.9801079 97.3224331,19.5014123 L94.4673222,19.5014123 C94.3039701,18.4147657 93.5937435,17.6832323 92.48579,17.6832323 C91.0795414,17.6832323 90.1562468,18.8622084 90.1562468,20.9218655 C90.1562468,23.0099317 91.0724391,24.1960101 92.48579,24.1960101 C93.5227209,24.1960101 94.2897656,23.5426017 94.4673222,22.3778301 L97.3224331,22.3778301 C97.1803878,24.8849299 95.3551055,26.5894738 92.4502787,26.5894738 Z M99.2684652,26.3764058 L99.2684652,11.8309651 L102.294031,11.8309651 L102.294031,19.6079463 L102.457383,19.6079463 L105.951697,15.4673253 L109.424706,15.4673253 L105.376414,20.1903321 L109.630671,26.3764058 L106.086641,26.3764058 L103.110791,21.9801032 L102.294031,22.9105 L102.294031,26.3764058 L99.2684652,26.3764058 Z M115.362211,30.6235608 C112.421872,30.6235608 110.738635,29.3025394 110.37642,27.6548137 L113.174713,27.2783936 C113.423292,27.8678816 114.098007,28.4502674 115.433233,28.4502674 C116.747152,28.4502674 117.705958,27.8678816 117.705958,26.4403262 L117.705958,24.4445895 L117.578118,24.4445895 C117.180391,25.3465772 116.20738,26.2201559 114.467325,26.2201559 C112.009941,26.2201559 110.042613,24.5298166 110.042613,20.9005587 C110.042613,17.1860736 112.066759,15.32528 114.460223,15.32528 C116.285505,15.32528 117.173288,16.4119267 117.578118,17.2997099 L117.691754,17.2997099 L117.691754,15.4673253 L120.696012,15.4673253 L120.696012,26.4829398 C120.696012,29.2031076 118.480105,30.6235608 115.362211,30.6235608 Z M115.426131,23.9474308 C116.882095,23.9474308 117.720163,22.8110683 117.720163,20.8863542 C117.720163,18.9758447 116.8963,17.7329481 115.426131,17.7329481 C113.927553,17.7329481 113.132099,19.0326628 113.132099,20.8863542 C113.132099,22.7684547 113.941757,23.9474308 115.426131,23.9474308 Z M123.110795,26.3764058 L123.110795,15.4673253 L126.044031,15.4673253 L126.044031,17.3707326 L126.157667,17.3707326 C126.555394,16.021302 127.549711,15.3110754 128.778403,15.3110754 C129.360789,15.3110754 129.872152,15.4673253 130.269879,15.7088023 L129.360789,18.2087999 C129.076698,18.0667546 128.742892,17.9531184 128.33096,17.9531184 C127.10937,17.9531184 126.143462,18.8693107 126.13636,20.2045367 L126.13636,26.3764058 L123.110795,26.3764058 Z M136.100847,26.5894738 C132.791191,26.5894738 130.731534,24.3238509 130.731534,20.9644791 C130.731534,17.5838005 132.791191,15.32528 136.100847,15.32528 C139.410503,15.32528 141.47016,17.5838005 141.47016,20.9644791 C141.47016,24.3238509 139.410503,26.5894738 136.100847,26.5894738 Z M136.115051,24.245726 C137.61363,24.245726 138.394879,22.8465796 138.394879,20.9431723 C138.394879,19.0397651 137.61363,17.6335164 136.115051,17.6335164 C134.588064,17.6335164 133.806815,19.0397651 133.806815,20.9431723 C133.806815,22.8465796 134.588064,24.245726 136.115051,24.245726 Z M150.440334,21.7315239 L150.440334,15.4673253 L153.465899,15.4673253 L153.465899,26.3764058 L150.561072,26.3764058 L150.561072,24.3948736 L150.447436,24.3948736 C149.957379,25.6732815 148.778403,26.5184511 147.13778,26.5184511 C144.94318,26.5184511 143.451704,24.9630549 143.444602,22.4133414 L143.444602,15.4673253 L146.470167,15.4673253 L146.470167,21.8735692 C146.477269,23.1590793 147.215905,23.9616354 148.35937,23.9616354 C149.446016,23.9616354 150.447436,23.1945906 150.440334,21.7315239 Z M158.906246,20.0695936 L158.906246,26.3764058 L155.880681,26.3764058 L155.880681,15.4673253 L158.764201,15.4673253 L158.764201,17.3920394 L158.892042,17.3920394 C159.382098,16.1207338 160.553972,15.32528 162.173289,15.32528 C164.446014,15.32528 165.93749,16.8877785 165.93749,19.4303897 L165.93749,26.3764058 L162.911924,26.3764058 L162.911924,19.9701619 C162.919027,18.6349359 162.187493,17.8394821 160.973006,17.8394821 C159.751416,17.8394821 158.913349,18.663345 158.906246,20.0695936 Z M172.336643,26.5539624 C169.85085,26.5539624 167.911932,24.5866348 167.911932,20.9360701 C167.911932,17.1860736 169.936077,15.32528 172.329541,15.32528 C174.154823,15.32528 175.028402,16.4119267 175.433231,17.2997099 L175.525561,17.2997099 L175.525561,11.8309651 L178.544024,11.8309651 L178.544024,26.3764058 L175.561072,26.3764058 L175.561072,24.6292484 L175.433231,24.6292484 C175.014197,25.5383384 174.098005,26.5539624 172.336643,26.5539624 Z M173.295449,24.1462943 C174.751414,24.1462943 175.589481,22.8678864 175.589481,20.9218655 C175.589481,18.9758447 174.765618,17.7329481 173.295449,17.7329481 C171.796871,17.7329481 171.001417,19.0326628 171.001417,20.9218655 C171.001417,22.8252728 171.811076,24.1462943 173.295449,24.1462943 Z M185.717329,26.3764058 L185.717329,11.8309651 L191.45596,11.8309651 C194.758513,11.8309651 196.669023,13.8693154 196.669023,16.7599377 C196.669023,19.6647645 194.723002,21.6605012 191.377835,21.6605012 L188.79261,21.6605012 L188.79261,26.3764058 L185.717329,26.3764058 Z M188.79261,19.1960149 L190.880676,19.1960149 C192.642038,19.1960149 193.501412,18.2016977 193.501412,16.7599377 C193.501412,15.3110754 192.642038,14.3451673 190.866472,14.3451673 L188.79261,14.3451673 L188.79261,19.1960149 Z M198.615056,26.3764058 L198.615056,15.4673253 L201.548292,15.4673253 L201.548292,17.3707326 L201.661928,17.3707326 C202.059655,16.021302 203.053972,15.3110754 204.282664,15.3110754 C204.86505,15.3110754 205.376413,15.4673253 205.77414,15.7088023 L204.86505,18.2087999 C204.58096,18.0667546 204.247153,17.9531184 203.835222,17.9531184 C202.613632,17.9531184 201.647724,18.8693107 201.640621,20.2045367 L201.640621,26.3764058 L198.615056,26.3764058 Z M211.605108,26.5894738 C208.295452,26.5894738 206.235795,24.3238509 206.235795,20.9644791 C206.235795,17.5838005 208.295452,15.32528 211.605108,15.32528 C214.914764,15.32528 216.974421,17.5838005 216.974421,20.9644791 C216.974421,24.3238509 214.914764,26.5894738 211.605108,26.5894738 Z M211.619313,24.245726 C213.117891,24.245726 213.89914,22.8465796 213.89914,20.9431723 C213.89914,19.0397651 213.117891,17.6335164 211.619313,17.6335164 C210.092326,17.6335164 209.311076,19.0397651 209.311076,20.9431723 C209.311076,22.8465796 210.092326,24.245726 211.619313,24.245726 Z" id="VideoBackgroundPro" fill="#000000" fill-rule="nonzero"></path>
    </g>
</svg>